<?xml version="1.0" encoding="UTF-8"?>
<svg version="1.1" xmlns="http://www.w3.org/2000/svg" width="192" height="192">
<path d="M0 0 C63.36 0 126.72 0 192 0 C192 63.36 192 126.72 192 192 C128.64 192 65.28 192 0 192 C0 128.64 0 65.28 0 0 Z " fill="#9EBFC0" transform="translate(0,0)"/>
<path d="M0 0 C7.94532933 3.52541103 13.34926159 11.46674801 18.62890625 18.09375 C21.65890635 21.80762162 24.843726 25.39282972 28 29 C35.92 29.33 43.84 29.66 52 30 C52 72.9 52 115.8 52 160 C31.54 160.33 11.08 160.66 -10 161 C-15.445 162.98 -15.445 162.98 -21 165 C-38.72595388 170.29604865 -59.11425479 170.07071938 -75.625 161.25 C-76.73101562 160.61578125 -77.83703125 159.9815625 -78.9765625 159.328125 C-82.40289539 157.82301753 -83.49982601 157.98309552 -87 159 C-90.34036324 159.12191107 -93.65564341 159.04459142 -97 159 C-97 154.71 -97 150.42 -97 146 C-98.670625 146.0825 -100.34125 146.165 -102.0625 146.25 C-108.98525146 146.24110186 -112.33007335 144.46454767 -117.4375 139.75 C-119.52444579 136.07697541 -119.8516622 133.13306655 -119 129 C-117.20636089 126.1899654 -115.98119065 124.49059532 -113 123 C-110.6670134 122.95977609 -108.33293334 122.95679753 -106 123 C-106.0719458 122.02909424 -106.1438916 121.05818848 -106.21801758 120.05786133 C-106.19826668 112.6884645 -102.01750354 105.85783494 -98.92602539 99.34643555 C-98.10285041 97.57919748 -97.31074942 95.79713842 -96.55102539 94.00170898 C-90.38169645 79.44358925 -90.38169645 79.44358925 -84.66558838 77.003479 C-79.10689654 75.6764651 -73.67887587 75.67030614 -68 76 C-69.12399399 79.56745919 -70.30199875 82.84062639 -72.1640625 86.0859375 C-72.76347656 87.13974609 -72.76347656 87.13974609 -73.375 88.21484375 C-73.7875 88.92769531 -74.2 89.64054687 -74.625 90.375 C-75.04523438 91.11105469 -75.46546875 91.84710938 -75.8984375 92.60546875 C-76.92752764 94.4063765 -77.96310756 96.20357318 -79 98 C-67.56623773 95.44988477 -57.87046092 82.07550299 -50 74 C-48.694761 77.91571701 -49.67760152 79.03892997 -51.4375 82.6875 C-52.14712891 84.17830078 -52.14712891 84.17830078 -52.87109375 85.69921875 C-53.24363281 86.45847656 -53.61617188 87.21773438 -54 88 C-49.36929834 85.95387601 -46.40230577 83.73423804 -43 80 C-42.51144531 79.49210937 -42.02289063 78.98421875 -41.51953125 78.4609375 C-35.57241814 72.04766113 -30.86409868 64.70463039 -26.01220703 57.45532227 C-25 56 -25 56 -24 55 C-10.04828488 53.87486168 -0.57411727 60.9111862 10 69 C7.89912049 59.33595427 1.88643881 50.16128356 -6.19921875 44.4453125 C-8 43 -8 43 -8.75 39.8125 C-8.8325 38.884375 -8.915 37.95625 -9 37 C-3.0564116 33.69800644 2.29119838 32.04481337 9 31 C8.01 27.535 8.01 27.535 7 24 C7.639375 24.165 8.27875 24.33 8.9375 24.5 C10.80826821 25.03926667 10.80826821 25.03926667 12 25 C11.63648438 24.31373535 11.27296875 23.6274707 10.8984375 22.92041016 C9.26137793 19.82416384 7.63061799 16.7246432 6 13.625 C5.42765625 12.54476563 4.8553125 11.46453125 4.265625 10.3515625 C3.72421875 9.3203125 3.1828125 8.2890625 2.625 7.2265625 C2.12226563 6.27346191 1.61953125 5.32036133 1.1015625 4.33837891 C0 2 0 2 0 0 Z " fill="#E9C386" transform="translate(140,7)"/>
<path d="M0 0 C2.96733338 2.96733338 5.22690066 5.51766092 7.625 8.875 C8.31722656 9.83792969 9.00945312 10.80085937 9.72265625 11.79296875 C11.31955219 14.04177075 12.91063555 16.29396436 14.49609375 18.55078125 C18.61474517 24.39574766 22.73497598 30.02828331 27.5390625 35.33984375 C30.56246237 38.77552542 32.68792405 42.14179113 34.25 46.4375 C35.94688995 49.89188311 36.87683232 50.93488989 39.75 53.25 C46.94549828 59.14686323 51.19316769 67.24928752 54 76 C51.33032652 74.71131893 48.83528979 73.31010303 46.35546875 71.6875 C45.33936523 71.03394531 45.33936523 71.03394531 44.30273438 70.3671875 C42.90083356 69.46106509 41.50233441 68.54965642 40.10742188 67.6328125 C33.88269759 63.6518157 27.63378424 61.24857429 20.13720703 61.44238281 C15.85090392 62.56071915 14.1109173 66.27594727 11.9375 69.875 C10.9107617 71.44265725 9.88211962 73.00906929 8.8515625 74.57421875 C8.36333008 75.33653809 7.87509766 76.09885742 7.37207031 76.88427734 C2.31440359 84.68316344 -2.89727571 90.38594867 -11 95 C-11.99 94.505 -11.99 94.505 -13 94 C-10.525 88.555 -10.525 88.555 -8 83 C-8.33 82.67 -8.66 82.34 -9 82 C-9.47308594 82.48355957 -9.94617188 82.96711914 -10.43359375 83.46533203 C-12.61691174 85.69067783 -14.80836873 87.90784225 -17 90.125 C-17.74378906 90.88554688 -18.48757812 91.64609375 -19.25390625 92.4296875 C-31.44701363 104.72882191 -31.44701363 104.72882191 -38 106 C-36.71663984 102.66790224 -35.29046548 99.50895417 -33.6171875 96.35546875 C-33.17246094 95.51435547 -32.72773437 94.67324219 -32.26953125 93.80664062 C-31.80933594 92.94232422 -31.34914062 92.07800781 -30.875 91.1875 C-30.40707031 90.30384766 -29.93914062 89.42019531 -29.45703125 88.50976562 C-28.30692397 86.33864475 -27.15451854 84.1687774 -26 82 C-26.58515381 82.1429248 -27.17030762 82.28584961 -27.77319336 82.43310547 C-32.10108345 83.45012633 -36.0898046 84.25099142 -40.5625 84.125 C-41.40941406 84.10695313 -42.25632812 84.08890625 -43.12890625 84.0703125 C-43.74636719 84.04710938 -44.36382812 84.02390625 -45 84 C-45.24927246 84.8245166 -45.49854492 85.6490332 -45.75537109 86.49853516 C-47.18545033 90.52172003 -48.98531035 94.22100357 -50.9140625 98.0234375 C-51.28856537 98.76961334 -51.66306824 99.51578918 -52.04891968 100.28457642 C-53.23717966 102.64996797 -54.43099382 105.0125047 -55.625 107.375 C-56.43526526 108.98549127 -57.24516498 110.59616651 -58.0546875 112.20703125 C-60.03223454 116.14016234 -62.01476516 120.07074408 -64 124 C-67.77488526 121.48340983 -67.74396524 120.2857475 -68.6875 115.9375 C-72.71931643 94.82975516 -68.05606084 76.08409126 -56.125 58.1875 C-49.72406655 49.72174931 -41.99415162 43.99405066 -32.75 39 C-26.98408141 35.85474463 -23.22607067 32.75548156 -20 27 C-19.51917969 26.17371094 -19.03835937 25.34742187 -18.54296875 24.49609375 C-17.32308936 22.34870276 -16.14471603 20.18812975 -15 18 C-14.34 18 -13.68 18 -13 18 C-12.01 20.31 -11.02 22.62 -10 25 C-9.67 20.38 -9.34 15.76 -9 11 C-5 16 -5 16 -1 23 C-0.67 15.41 -0.34 7.82 0 0 Z " fill="#010101" transform="translate(98,1)"/>
<path d="M0 0 C7.94532933 3.52541103 13.34926159 11.46674801 18.62890625 18.09375 C21.65890635 21.80762162 24.843726 25.39282972 28 29 C35.92 29.33 43.84 29.66 52 30 C52 72.9 52 115.8 52 160 C31.87 160 11.74 160 -9 160 C-6.525 158.02 -6.525 158.02 -4 156 C10.50181526 144.05315382 20.15211822 128.82897041 23 110 C24.28677993 95.25763241 20.532328 82.65431104 13 70 C12.49984375 69.51015625 11.9996875 69.0203125 11.484375 68.515625 C9.41895652 66.40672402 8.52264265 64.05881207 7.3125 61.375 C4.06601602 54.69582473 -0.05799729 48.77763892 -6.1953125 44.453125 C-8 43 -8 43 -8.75 39.8125 C-8.87375 38.4203125 -8.87375 38.4203125 -9 37 C-3.0564116 33.69800644 2.29119838 32.04481337 9 31 C8.34 28.69 7.68 26.38 7 24 C7.639375 24.165 8.27875 24.33 8.9375 24.5 C10.80826821 25.03926667 10.80826821 25.03926667 12 25 C11.63648438 24.31373535 11.27296875 23.6274707 10.8984375 22.92041016 C9.26137793 19.82416384 7.63061799 16.7246432 6 13.625 C5.42765625 12.54476563 4.8553125 11.46453125 4.265625 10.3515625 C3.72421875 9.3203125 3.1828125 8.2890625 2.625 7.2265625 C2.12226563 6.27346191 1.61953125 5.32036133 1.1015625 4.33837891 C0 2 0 2 0 0 Z " fill="#B1C3BE" transform="translate(140,7)"/>
<path d="M0 0 C0.80179688 0.42152344 1.60359375 0.84304687 2.4296875 1.27734375 C3.60144531 1.86322266 3.60144531 1.86322266 4.796875 2.4609375 C5.62445313 2.87472656 6.45203125 3.28851563 7.3046875 3.71484375 C25.10014357 11.74536999 46.07547398 11.2876075 64.4296875 5.27734375 C65.84483643 4.50777344 65.84483643 4.50777344 67.28857422 3.72265625 C73.07332997 1.21739203 79.49570897 1.91041144 85.67578125 1.984375 C87.05582719 1.98997832 88.43587915 1.99424494 89.81593323 1.99723816 C93.42785452 2.00862919 97.03940725 2.0380457 100.65118408 2.0713501 C104.34487931 2.10217582 108.03863477 2.11577006 111.73242188 2.13085938 C118.96503031 2.16292203 126.19726006 2.21564172 133.4296875 2.27734375 C133.4296875 10.52734375 133.4296875 18.77734375 133.4296875 27.27734375 C70.0696875 27.27734375 6.7096875 27.27734375 -58.5703125 27.27734375 C-58.5703125 19.02734375 -58.5703125 10.77734375 -58.5703125 2.27734375 C-55.03054687 2.22835937 -51.49078125 2.179375 -47.84375 2.12890625 C-44.40832358 2.0748674 -40.97296582 2.01757124 -37.53759766 1.95996094 C-35.15353529 1.92172261 -32.76941625 1.88686082 -30.38525391 1.85546875 C-26.95454681 1.80970692 -23.52422818 1.75172986 -20.09375 1.69140625 C-19.03102875 1.67985504 -17.9683075 1.66830383 -16.87338257 1.65640259 C-11.56273043 1.55094321 -4.69912551 -1.3211827 0 0 Z " fill="#304E37" transform="translate(58.5703125,164.72265625)"/>
<path d="M0 0 C33.33 0 66.66 0 101 0 C101 12.21 101 24.42 101 37 C78.04780815 38.38722039 78.04780815 38.38722039 73.49609375 34.9375 C70.98231633 32.09689117 68.99650018 29.22235128 67 26 C65.4627798 24.06299938 63.90049206 22.14559979 62.3125 20.25 C61.58546875 19.35023437 60.8584375 18.45046875 60.109375 17.5234375 C55.21769002 11.48102254 55.21769002 11.48102254 49 7 C49.39380859 7.74161377 49.78761719 8.48322754 50.19335938 9.24731445 C51.65191216 12.00108801 53.10490848 14.75769962 54.55419922 17.51635742 C55.18251986 18.70958276 55.81304027 19.90165245 56.44580078 21.0925293 C57.35506795 22.80472078 58.25577827 24.52144779 59.15625 26.23828125 C59.70087891 27.26993408 60.24550781 28.30158691 60.80664062 29.36450195 C62 32 62 32 62 35 C61.566875 34.525625 61.13375 34.05125 60.6875 33.5625 C58.97690387 31.76313043 58.97690387 31.76313043 56 31 C56.495 31.8971875 56.495 31.8971875 57 32.8125 C58 35 58 35 58 38 C55.58394775 38.81436587 53.16720002 39.62655397 50.75 40.4375 C50.06808594 40.66759766 49.38617188 40.89769531 48.68359375 41.13476562 C45.47933387 42.20803714 42.29953381 43.26015608 39 44 C38.45472656 43.25556641 38.45472656 43.25556641 37.8984375 42.49609375 C35.43143018 39.16247104 32.95758024 35.90071271 30.1875 32.8125 C27.00402305 29.16597186 24.33627994 25.20925404 21.61816406 21.20947266 C17.33296648 14.94385785 12.68178115 8.97195884 8 3 C7.01 3.33 6.02 3.66 5 4 C3.35 2.68 1.7 1.36 0 0 Z " fill="#94ACA6" transform="translate(91,0)"/>
<path d="M0 0 C7.775625 -0.0825 15.55125 -0.165 23.5625 -0.25 C26.00470947 -0.28641602 28.44691895 -0.32283203 30.96313477 -0.36035156 C32.91421633 -0.37204178 34.86530771 -0.38223282 36.81640625 -0.390625 C37.81700073 -0.41108887 38.81759521 -0.43155273 39.84851074 -0.45263672 C40.82219604 -0.45312012 41.79588135 -0.45360352 42.79907227 -0.45410156 C43.63624283 -0.46298401 44.47341339 -0.47186646 45.33595276 -0.48101807 C48 0 48 0 55 4 C55 11.26 55 18.52 55 26 C51.7450185 21.93127312 49.46036234 18.48137427 47 14 C46.67 18.29 46.34 22.58 46 27 C45.34 26.67 44.68 26.34 44 26 C43.26924352 23.6859378 42.59861742 21.35171131 42 19 C41.34 19 40.68 19 40 19 C39.74476562 19.87527344 39.48953125 20.75054688 39.2265625 21.65234375 C35.99403933 30.47486719 30.16097635 36.68033579 22 41 C13.80592535 45.91884422 6.75228444 51.24771556 0 58 C0 38.86 0 19.72 0 0 Z " fill="#C7D4D0" transform="translate(43,0)"/>
<path d="M0 0 C1.37432523 0.00748062 2.74866129 0.01316492 4.1230011 0.01715088 C7.70212393 0.03226455 11.28057476 0.07141791 14.85943604 0.1159668 C18.52664098 0.15723217 22.19395684 0.17522789 25.86132812 0.1953125 C33.0289845 0.23793069 40.19595228 0.30815806 47.36328125 0.390625 C47.36328125 8.640625 47.36328125 16.890625 47.36328125 25.390625 C39.56929391 25.55182697 31.78114614 25.69102118 23.98681641 25.77514648 C21.33883 25.81023093 18.69097806 25.85791207 16.04345703 25.91870117 C12.2252476 26.00414061 8.40883859 26.04343681 4.58984375 26.07421875 C2.82986557 26.12841225 2.82986557 26.12841225 1.03433228 26.18370056 C-7.37426443 26.18766856 -12.42062735 24.07355457 -18.63671875 18.390625 C-21.14453125 15.40625 -21.14453125 15.40625 -22.76171875 12.640625 C-23.32117188 11.71765625 -23.880625 10.7946875 -24.45703125 9.84375 C-25.63671875 7.390625 -25.63671875 7.390625 -25.63671875 4.390625 C-16.98882048 0.45330018 -9.41914069 -0.14965328 0 0 Z " fill="#A42424" transform="translate(144.63671875,166.609375)"/>
<path d="M0 0 C15.18 0 30.36 0 46 0 C43.33449905 1.77700064 40.7462926 3.16033816 37.875 4.5625 C34.72017508 5.96538292 34.72017508 5.96538292 32 8 C32.28469203 13.02499694 32.28469203 13.02499694 35 17 C37.90675183 17.02168637 37.90675183 17.02168637 41.125 16.625 C42.22070312 16.51414063 43.31640625 16.40328125 44.4453125 16.2890625 C45.28835937 16.19367188 46.13140625 16.09828125 47 16 C46.02065076 17.67888441 45.01656081 19.34338239 44 21 C43.49182739 22.06299316 43.49182739 22.06299316 42.97338867 23.14746094 C39.72078656 26.20087487 36.02593999 25.49106208 31.73828125 25.390625 C30.83248825 25.38496521 29.92669525 25.37930542 28.99345398 25.37347412 C26.09926589 25.35107616 23.2063141 25.30087392 20.3125 25.25 C18.35092933 25.2299394 16.38933927 25.21168786 14.42773438 25.1953125 C9.6176297 25.15460065 4.8101991 25.07631872 0 25 C0 16.75 0 8.5 0 0 Z " fill="#A52424" transform="translate(0,167)"/>
<path d="M0 0 C8.98442677 3.98646751 15.00708626 13.57094657 21 21 C25.33133909 26.48258688 25.33133909 26.48258688 30.875 30.5625 C31.57625 31.036875 32.2775 31.51125 33 32 C33.36760731 34.32817964 33.70241581 36.6618385 34 39 C35.31647119 39.69937532 36.65022151 40.36729133 38 41 C39 43.8125 39 43.8125 39 47 C37.5 49.875 37.5 49.875 35 52 C30.58440935 52.54226552 28.73255448 52.48836965 25 50 C25 49.34 25 48.68 25 48 C24.13375 48.185625 23.2675 48.37125 22.375 48.5625 C19 48 19 48 17.4765625 46.453125 C13.42596723 40.58083344 7 31.24217127 7 24 C7.639375 24.165 8.27875 24.33 8.9375 24.5 C10.80826821 25.03926667 10.80826821 25.03926667 12 25 C11.63648438 24.31373535 11.27296875 23.6274707 10.8984375 22.92041016 C9.26137793 19.82416384 7.63061799 16.7246432 6 13.625 C5.42765625 12.54476563 4.8553125 11.46453125 4.265625 10.3515625 C3.72421875 9.3203125 3.1828125 8.2890625 2.625 7.2265625 C2.12226563 6.27346191 1.61953125 5.32036133 1.1015625 4.33837891 C0 2 0 2 0 0 Z " fill="#BFD2CE" transform="translate(140,7)"/>
<path d="M0 0 C1.65 0 3.3 0 5 0 C5 4.29 5 8.58 5 13 C7.31 13 9.62 13 12 13 C12 13.33 12 13.66 12 14 C-4.5 14 -21 14 -38 14 C-38 11.69 -38 9.38 -38 7 C-25.46 7 -12.92 7 0 7 C0 4.69 0 2.38 0 0 Z " fill="#6F9C9D" transform="translate(38,153)"/>
<path d="M0 0 C3.99387907 1.56769085 6.46221113 4.36551014 9.25 7.5 C9.72800049 8.03318848 10.20600098 8.56637695 10.69848633 9.11572266 C12.14104366 10.73634077 13.57107029 12.36736647 15 14 C15.82371094 14.92554688 16.64742187 15.85109375 17.49609375 16.8046875 C18.21925781 17.65289062 18.94242188 18.50109375 19.6875 19.375 C20.33074219 20.12523437 20.97398437 20.87546875 21.63671875 21.6484375 C23.37166862 24.64110175 23.398727 26.59440232 23 30 C21 32 21 32 17.875 32.125 C16.92625 32.08375 15.9775 32.0425 15 32 C0 3.92576419 0 3.92576419 0 0 Z " fill="#BFD2CE" transform="translate(168,134)"/>
<path d="M0 0 C1.32 0 2.64 0 4 0 C4.09279724 7.60616489 4.1638141 15.21227087 4.20724869 22.81887341 C4.22809843 26.35121382 4.25636679 29.88316613 4.30175781 33.4152832 C4.35364825 37.47871567 4.37296666 41.54174228 4.390625 45.60546875 C4.41127014 46.8702153 4.43191528 48.13496185 4.45318604 49.43803406 C4.45348816 50.61888077 4.45379028 51.79972748 4.45410156 53.01635742 C4.46298401 54.05338303 4.47186646 55.09040863 4.48101807 56.15885925 C4 59 4 59 0 64 C0 42.88 0 21.76 0 0 Z " fill="#7A7241" transform="translate(39,0)"/>
<path d="M0 0 C3.25 0.375 3.25 0.375 6.1875 2.5 C8.25 5.375 8.25 5.375 8.25 8.5 C6.72252747 12.89148352 6.72252747 12.89148352 4.25 14.375 C-0.11706908 14.76491688 -2.05513897 14.83824069 -5.75 12.375 C-5.75 11.715 -5.75 11.055 -5.75 10.375 C-6.69875 10.41625 -7.6475 10.4575 -8.625 10.5 C-11.75 10.375 -11.75 10.375 -13.75 8.375 C-13.375 5.25 -13.375 5.25 -12.75 2.375 C-9.69152152 1.83127049 -6.86227195 1.375 -3.75 1.375 C-2.75 0.375 -2.75 0.375 0 0 Z " fill="#DEEBEA" transform="translate(170.75,44.625)"/>
<path d="M0 0 C4.84658302 2.4777475 8.02903803 5.95977494 11.625 9.9375 C12.19734375 10.55818359 12.7696875 11.17886719 13.359375 11.81835938 C19.31520004 18.32128928 19.31520004 18.32128928 21 21 C20.58974359 25.41025641 20.58974359 25.41025641 19 27 C16.6484375 27.35546875 16.6484375 27.35546875 14 27 C12.2265625 25.05078125 12.2265625 25.05078125 10.625 22.3125 C9.74521484 20.82169922 9.74521484 20.82169922 8.84765625 19.30078125 C8.23792969 18.21152344 7.62820312 17.12226562 7 16 C6.67112793 15.4229834 6.34225586 14.8459668 6.00341797 14.25146484 C0 3.69674018 0 3.69674018 0 0 Z " fill="#BFD2CE" transform="translate(167,88)"/>
<path d="M0 0 C3.0625 0.3125 3.0625 0.3125 5 1.375 C6.7115104 4.49598955 5.85541991 6.95783884 5.0625 10.3125 C4.4025 10.9725 3.7425 11.6325 3.0625 12.3125 C-0.4375 12.125 -0.4375 12.125 -3.9375 11.3125 C-5.9375 8.3125 -5.9375 8.3125 -5.6875 5.25 C-4.69210355 1.35136391 -4.04786381 0.43062381 0 0 Z " fill="#070504" transform="translate(84.9375,110.6875)"/>
<path d="M0 0 C1.8125 1.125 1.8125 1.125 3 3 C3.39769128 6.18153026 3.55198782 8.12844028 1.8125 10.875 C-0.65507108 12.40659584 -2.14519831 12.42822025 -5 12 C-6.8125 10.875 -6.8125 10.875 -8 9 C-8.39769128 5.81846974 -8.55198782 3.87155972 -6.8125 1.125 C-4.34492892 -0.40659584 -2.85480169 -0.42822025 0 0 Z " fill="#040302" transform="translate(144,95)"/>
<path d="M0 0 C4.65196437 1.16299109 5.78814141 2.55312737 9 6 C9.928125 6.928125 10.85625 7.85625 11.8125 8.8125 C12.534375 9.534375 13.25625 10.25625 14 11 C10.78817851 12.90608098 8.46117397 13.22266247 4.75 13.125 C3.1825 13.08375 1.615 13.0425 0 13 C0 8.71 0 4.42 0 0 Z " fill="#B3C5C1" transform="translate(43,153)"/>
<path d="M0 0 C1.32 0 2.64 0 4 0 C4 4.29 4 8.58 4 13 C6.31 13 8.62 13 11 13 C11 13.33 11 13.66 11 14 C-5.5 14 -22 14 -39 14 C-39 13.67 -39 13.34 -39 13 C-26.13 13 -13.26 13 0 13 C0 8.71 0 4.42 0 0 Z " fill="#837056" transform="translate(39,153)"/>
<path d="M0 0 C2.5 0.25 2.5 0.25 4.5 2.25 C4.75 5.25 4.75 5.25 4.5 8.25 C2.5 10.25 2.5 10.25 -0.5 10.5625 C-1.49 10.459375 -2.48 10.35625 -3.5 10.25 C-5.5 7.25 -5.5 7.25 -5.25 4.6875 C-4.24098289 1.40819438 -3.4742892 0.34742892 0 0 Z " fill="#DDEBEA" transform="translate(186.5,155.75)"/>
<path d="M0 0 C9.55430541 6.10482891 14.93894452 14.55728592 19 25 C15.69855879 23.61239278 14.10295235 22.16893297 12.08984375 19.2265625 C11.57486328 18.4840625 11.05988281 17.7415625 10.52929688 16.9765625 C10.00400391 16.20054688 9.47871094 15.42453125 8.9375 14.625 C7.88446573 13.09611225 6.83109108 11.56745888 5.77734375 10.0390625 C5.31577881 9.36053223 4.85421387 8.68200195 4.37866211 7.98291016 C3.40446385 6.58173462 2.3815554 5.21384008 1.32641602 3.87255859 C0 2 0 2 0 0 Z " fill="#C1CECB" transform="translate(106,10)"/>
<path d="M0 0 C2.5 -0.3125 2.5 -0.3125 5 0 C5.66 0.66 6.32 1.32 7 2 C6.44444444 6.55555556 6.44444444 6.55555556 5 8 C3.33382885 8.04063832 1.66611905 8.042721 0 8 C-1.125 5.6875 -1.125 5.6875 -2 3 C-1.34 2.01 -0.68 1.02 0 0 Z " fill="#DFECEB" transform="translate(181,107)"/>
<path d="M0 0 C1.98 0.495 1.98 0.495 4 1 C3.67 2.65 3.34 4.3 3 6 C1.68 5.67 0.36 5.34 -1 5 C-0.67 3.35 -0.34 1.7 0 0 Z " fill="#D2903B" transform="translate(84,144)"/>
<path d="M0 0 C1.98 0.495 1.98 0.495 4 1 C3.67 2.32 3.34 3.64 3 5 C1.68 5 0.36 5 -1 5 C-0.67 3.35 -0.34 1.7 0 0 Z " fill="#D4923E" transform="translate(150,125)"/>
<path d="M0 0 C1.32 0.66 2.64 1.32 4 2 C3.67 2.99 3.34 3.98 3 5 C1.68 5 0.36 5 -1 5 C-0.67 3.35 -0.34 1.7 0 0 Z " fill="#D59542" transform="translate(154,106)"/>
<path d="M0 0 C0.99 0.66 1.98 1.32 3 2 C2.34 3.32 1.68 4.64 1 6 C0.01 5.34 -0.98 4.68 -2 4 C-1.34 2.68 -0.68 1.36 0 0 Z " fill="#D39441" transform="translate(72,130)"/>
<path d="M0 0 C0.99 0 1.98 0 3 0 C2.67 1.65 2.34 3.3 2 5 C1.01 4.67 0.02 4.34 -1 4 C-0.67 2.68 -0.34 1.36 0 0 Z " fill="#D3923E" transform="translate(67,149)"/>
</svg>
